<mxfile host="app.diagrams.net" modified="2024-02-06T03:05:25.233Z" agent="Mozilla/5.0 (Windows NT 10.0; Win64; x64) AppleWebKit/537.36 (KHTML, like Gecko) Chrome/121.0.0.0 Safari/537.36" version="23.1.1" etag="H24Fq0-wS3lCQcyu7m3J" type="github">
  <diagram name="Halaman-1" id="jAf9WW7Myk3KQeylWCVP">
    <mxGraphModel>
      <root>
        <mxCell id="0" />
        <mxCell id="1" parent="0" />
      </root>
    </mxGraphModel>
  </diagram>
</mxfile>
